<?xml version="1.0" ?><svg xmlns="http://www.w3.org/2000/svg" width="389.50354mm" height="318.70819mm" viewBox="0 0 389.50354 318.70819">
    <path d="m 22997.236,13603.832 c -30.07,0.75 -74.796,14.675 -137.422,55.741 0,0 -43.801,80.309 -16.423,136.889 27.377,56.58 146.006,12.773 186.16,-25.555 40.153,-38.328 29.208,-131.415 12.782,-151.492 -7.187,-8.784 -21.71,-16.167 -45.097,-15.583 z m -285.384,197 c -34.333,-1.019 -83.42,21.396 -149.541,86.89 -187.712,155.71 -124.205,263.04 -91.21,335.961 l -123.577,19.44 c -72.997,-69.422 -147.639,-98.328 -296.252,-77.982 34.684,41.92 100.465,62.799 158.784,94.91 l -87.889,35.042 -3.37,204.049 115.414,52.913 c -55.787,27.726 -150.716,44.655 -144.648,92.576 2.385,35.338 164.997,55.788 306.662,-59.701 86.136,65.821 582.635,60.318 928.999,-156.963 -116.049,-84.096 -225.058,-169.313 -535.287,-213.928 25.866,-95.11 -45.838,-64.819 -81.615,-90.877 -137.514,-24.91 5.428,-123.266 54.762,-197.112 26.092,-35.935 14.312,-123.272 -51.232,-125.218 z" color="#000" overflow="visible" fill="#FFFFFF" paint-order="fill markers stroke" transform="translate(88.918514,11.187487) matrix(0.26458333,0,0,0.26458333,-5876.071,-3601.796)"/>
    <path d="M 1075.2441,0 C 1023.3801,7.5589999 955.852,-5.8567497 930.5,17.28125 c -9.523,6.998 -20.83464,25.096484 -1.18164,18.021484 6.757,-2.475 21.25252,-4.296468 25.72852,5.269532 1.93799,4.143 -19.14726,13.708968 -22.28126,14.917968 -23.40899,9.029 -36.27293,28.412969 -39.71093,42.917969 -6.712,28.320997 2.80986,24.497997 17.50586,18.874997 32.356,-12.379 30.00526,15.75264 33.94726,53.68164 5.014,57.695 31.82417,91.39052 76.45119,96.10352 57.209,6.041 121.0566,-17.75214 150.2246,-55.99414 12.016,-15.753 21.6281,-21.81836 34.6191,-21.81836 23.08,0 30.3007,-11.20441 10.4317,-16.19141 -14.681,-3.684 -15.1008,-5.46215 -12.1758,-51.03515 3.162,-49.274003 -6.5188,-76.635628 -34.0508,-95.140628 C 1138.4378,5.6696721 1103.7271,0.217 1075.2441,0 Z m 0.3711,50.798828 c -22.7983,29.216812 6.12,31.552651 30.7266,25.728516 18.5282,-5.936496 57.8203,-11.679681 57.8203,-11.679681 10.9494,-3.017242 15.5073,17.143014 15.5899,31.990228 0.3,54.058999 -22.8455,110.972699 -66.2715,131.220699 -11.028,-14.269 -26.7655,-32.28922 -27.1075,-48.44921 0.419,-21.527 -17.3755,-10.64321 -19.9785,11.09179 -2.12,17.701 5.4955,35.12131 18.4785,48.32031 -24.999,7.68 -49.7681,10.21813 -68.6191,5.07813 -25.41199,-6.929 -38.60582,-19.22744 -46.42382,-54.02344 -5.034,-22.41 2.55797,-39.85759 10.54297,-56.68359 16.09208,-33.912803 44.47705,-64.026452 95.24215,-82.593752 z m 71.2539,61.724612 c -8.862,-0.231 -17.9257,4.01364 -17.9257,11.93164 0,6.427 1.911,13.59269 4.248,15.92969 11.572,11.571 35.465,-3.61604 29.627,-18.83204 -2.289,-5.962 -9.0563,-8.85029 -15.9493,-9.02929 z M 836.43555,216.6875 c -30.718,-0.463 -59.79955,16.73642 -89.93555,39.60742 -35.1,21.731 -128.79156,111.6741 -152.60156,146.4961 -32.743,47.885 -42.93814,160.65881 -19.24414,212.88281 6.997,15.421 11.94681,28.71501 11.00781,29.54101 -0.938,0.827 -25.43059,4.65205 -54.43359,8.49805 l -52.73438,6.99219 -30.13086,-21.44727 c -66.433,-47.283 -90.39414,-55.13058 -185.24414,-60.64258 -47.904,-2.784 -89.24795,-3.87673 -91.87695,-2.42773 -2.629,1.449 -4.78125,7.61527 -4.78125,13.69727 0,7.564 22.51561,23.10596 71.22461,49.16796 39.174,20.959 72.1665,40.92038 73.3125,44.35938 1.147,3.439 -15.84282,10.71687 -37.75782,16.17187 -28.448,7.081 -39.19573,12.53975 -37.55273,19.09375 1.265,5.049 2.98145,57.51027 3.81445,116.57227 0.994,70.427 3.95933,108.88967 8.61133,111.76367 3.901,2.411 24.54781,8.2631 45.88281,12.9961 52.375,11.62 49.17624,23.54161 -12.88476,47.97463 -27.534,10.915 -81.09158,26.313 -70.14258,63.789 4.117,10.83 24.11977,24.2931 38.75977,26.6661 88.21599,14.335 147.58065,-0.08 219.22265,-30.6993 31.705,-14.739 60.22491,-30.1236 63.37891,-34.1816 4.301,-5.537 10.11534,-5.1949 23.27734,1.3711 150.673,38.562 363.82274,28.4268 603.42778,-33.2012 50.557,-10.69598 76.6298,-19.89648 80.8378,-15.68748 10.332,10.331 30.0864,7.58918 27.9844,-3.88282 -1.382,-7.543 20.6857,-20.49834 84.1817,-49.40234 108.768,-49.512 122.3419,-58.51855 119.8379,-79.56055 -2.092,-17.58 -20.8965,-30.4132 -115.0665,-78.5332 -31.26,-15.162 -63.5831,-37.54053 -91.6601,-49.64453 -42.446,-18.178 -56.4325,-46.0968 -55.7715,-111.3418 0.445,-43.972 16.1743,-113.65601 29.2363,-129.54101 3.566,-4.337 4.6236,-12.73025 2.3496,-18.65625 -3.692,-9.62 -5.175,-9.74391 -13.791,-1.12891 -25.194,25.194 -41.6582,187.31912 -22.4902,221.45312 7.244,12.899 7.2267,14.75866 -0.1113,11.84766 -22.759,-9.114 -40.8138,-16.43317 -64.0508,-25.82617 l 4.2109,-28.11133 c 7.737,-51.59 57.7606,-198.12886 73.1426,-214.25586 2.727,-2.86 15.1267,6.67831 27.5527,21.19531 18.193,21.254 26.1012,25.99027 40.6172,24.32227 15.509,-1.783 18.6571,-5.63527 22.5391,-27.57227 2.6,-14.691 1.5913,-33.03139 -2.3887,-43.27539 -5.654,-14.554 -4.9987,-19.17223 3.6133,-25.49023 9.636,-7.069 9.2989,-9.45544 -3.9121,-28.27344 -24.067,-34.284 -70.1614,-42.64353 -129.6074,-23.51953 -17.277,5.558 -35.3226,11.32531 -40.0996,12.82031 -6.758,2.115 -7.015,4.72944 -1.168,11.77344 6.491,7.824 11.5703,7.819 37.3633,0 35.998,-10.925 39.4121,-11.13362 39.4121,-2.39062 0,9.72399 -110.2188,59.85765 -159.3418,72.47265 -75.32302,19.343 -140.16863,12.07169 -165.59963,-18.57031 -12.279,-14.796 1.76536,-28.80839 17.56836,-17.52539 33.612,24.001 61.0455,24.18692 156.31247,1.04492 101.403,-24.632 83.8158,-33.93887 -23.2402,-12.29687 -77.41601,15.65099 -94.50316,15.82409 -112.66016,1.12109 -13.429,-10.874 -13.88589,-13.85735 -7.71289,-49.40235 8.006,-46.09699 -0.0985,-70.42693 -30.6875,-92.21093 -17.372,-11.654 -33.909,-16.74138 -50,-16.98438 z m 2.625,14.98633 v 0.002 c 0.343,0 0.68243,0.021 1.02343,0.041 4.963,0.33 9.81147,2.35192 16.85547,5.29492 41.274,17.245 54.12983,57.51191 32.17383,100.7539 -24.32,47.898 -34.00506,43.29691 -34.16406,-16.24609 -0.07,-26.801 -2.45233,-36.65625 -8.86133,-36.65625 -16.94,0 -18.72039,61.66703 -2.65039,91.70703 5.387,10.071 1.74255,16.04733 -22.31445,36.61133 -79.579,69.767 -86.18903,144.82922 43.29297,159.69922 62.25999,0.726 60.70514,29.69933 37.36914,58.73633 -8.613,1.58 -46.25793,3.08375 -64.91993,3.34375 -28.793,0.402 -33.58987,2.16976 -31.67187,11.63476 2.42,11.949 12.24231,12.85394 52.07031,4.83594 34.626,-6.971 28.43747,6.34339 -14.14453,30.40039 -24.472,13.826 -43.9288,19.48261 -72.9668,21.22461 -59.453,3.565 -93.38982,-9.88202 -138.29882,-54.79102 -43.983,-43.98299 -48.21002,-57.95946 -42.79102,-141.60546 2.885,-44.533 7.08842,-62.64202 19.48242,-83.79102 22.465,-38.333 110.03913,-119.82094 172.57813,-160.58594 35.431,-23.095 47.3035,-30.80837 57.9375,-30.60937 z m 421.14065,107.40039 c 6.973,-0.279 21.756,10.4457 28.459,22.9707 3.87,7.231 6.0877,14.08075 4.9277,15.21875 -4.128,4.049 -37.1699,-26.08834 -37.1699,-33.90234 0,-2.88 1.4592,-4.19411 3.7832,-4.28711 z m -69.6094,60.89648 c 16.102,0.131 9.9127,20.25024 -10.0723,69.99024 -18.931,47.12 -57.9531,178.02106 -57.9531,194.41406 0,0 -22.2154,-3.7467 -42.1504,-10.3457 5.557,-40.277 -83.10961,-73.80761 -126.76561,-79.22461 -17.528,-2.364 -35.1187,-6.97219 -39.0957,-10.24219 -3.976,-3.27 -31.11646,-10.15116 -60.31446,-15.28516 -76.11399,-13.904 -86.58099,-62.34276 -10.625,-124.13476 l 17.43946,-13.58399 23.98633,17.88868 c 59.30199,53.08699 173.93438,26.25315 250.65238,-10.21485 27.556,-12.231 45.2374,-19.34072 54.8984,-19.26172 z m 82.4766,27.5625 c 0.762,-0.03 1.5956,0.2051 2.4726,0.7461 3.505,2.167 6.377,6.63654 6.377,9.93554 0,3.299 -2.872,6.00391 -6.377,6.00391 -3.506,0 -6.3769,-4.46955 -6.3769,-9.93555 0,-4.099 1.6193,-6.649 3.9043,-6.75 z M 953.35352,590.81836 c 45.843,12.577 106.33658,35.59644 104.93558,57.27344 0,0 -14.5406,-0.14739 -34.5176,-6.27539 -29.94402,-7.196 -54.91375,-5.99596 -86.05275,-6.37696 v -22.30468 c 0,-19.433 2.01477,-22.31641 15.63477,-22.31641 z m -704.61133,2.79102 c 1.476,0 2.98067,0.0305 4.51367,0.0605 40.882,0.832 100.86183,10.26577 129.92383,23.88477 28.664,13.431 57.36719,35.28273 57.36719,43.67773 0,2.447 -12.19476,6.33196 -27.09376,8.62696 -63.63599,9.80199 -63.24493,9.87289 -133.83593,-27.16211 -37.679,-19.768 -68.52235,-37.89607 -68.52735,-40.28907 -0.02,-6.224 15.50135,-8.89692 37.65235,-8.79492 z m 691.8164,57.96289 c 5.658,-0.01 12.40547,0.3689 20.98047,0.8789 41.56104,2.475 55.72264,29.07494 55.72264,38.08594 0,9.215 -15.1075,30.14828 -39.81053,51.98828 -19.687,17.405 -132.45917,76.28894 -230.95117,120.58594 -12.27,5.518 -26.61795,12.07722 -31.87695,14.57422 -5.258,2.499 -9.5586,9.88401 -9.5586,16.41601 0,8.927 6.48571,12.98208 26.09571,16.33008 14.35,2.45 36.92778,8.98258 50.17578,14.51758 13.247,5.535 27.05087,10.0664 30.67187,10.0664 12.134,0 -17.19273,-26.43581 -39.80273,-35.88281 l -22.35156,-9.3457 31.79296,-18.70117 c 17.481,-10.29 34.02258,-18.76722 36.76758,-18.82422 8.326,-0.181 143.84632,-69.10652 167.57032,-85.22852 23.59802,-16.035 59.93462,-54.23739 55.51562,-78.77539 -5.717,-31.74 16.7133,-14.91225 34.7363,-11.53125 42.631,7.998 44.4297,10.58218 47.5977,68.45117 2.323,42.429 7.3375,62.98279 25.5195,104.67579 12.442,28.533 31.6686,65.02761 42.7266,81.0996 l 20.0996,29.22461 -14.5254,3.01563 c -7.993,1.661 -56.1221,11.78795 -106.9551,22.50195 -168.44398,35.15699 -317.88444,62.85359 -533.81443,19.05859 -59.573,-12.08299 -107.06058,-24.57798 -164.14258,-38.45898 l -0.16016,-125.5918 c -0.13,-106.41199 -1.58759,-125.59179 -9.55859,-125.59179 -7.983,0 -9.3483,18.60414 -9.0293,122.74414 0.331,108.318 -0.79255,122.3848 -9.56055,119.7168 -5.465,-1.662 -26.86668,-7.3695 -47.55468,-12.6875 -20.689,-5.319 -39.17599,-11.23068 -41.08399,-13.13868 -8.986,-8.985 -8.87919,-80.94604 -10.86719,-149.24804 1.577,-31.243 -11.793,-60.26283 34.875,-69.54883 50.247,-13.643 152.20638,-33.35142 222.98438,-41.98242 l 79.05469,-9.64649 22.63476,19.87891 c 12.451,10.932 37.708,26.77798 56.125,35.20898 62.729,28.719 147.70643,13.31081 207.48242,-37.61718 24.921,-21.232 31.73024,-26.74446 50.11524,-27.18946 0.766,-0.02 1.55137,-0.0293 2.35937,-0.0293 z m 198.38481,46.10742 c 16.891,5.871 143.5101,66.36453 165.7421,78.01953 106.924,56.693 127.2367,68.51872 124.6387,82.01172 -2.356,12.231 -53.8547,41.83473 -132.2597,73.17773 -31.986,12.787 -59.422,23.24805 -60.961,23.24805 -16.852,0 -74.5142,-96.98011 -90.6992,-152.53711 -9.823,-33.721 -4.7899,-87.25192 -6.4609,-103.91992 z m -954.3516,78.58008 c -12.28,-0.07 -29.0055,1.73201 -46.8125,5.41601 -22.961,4.749 -20.89825,5.34195 20.71875,6.00195 27.047,0.429 46.20798,-1.90867 46.20898,-5.63867 0,-3.781 -7.83523,-5.71229 -20.11523,-5.77929 z m 18.72265,42.58593 c -0.82,0.02 -1.65537,0.10043 -2.48437,0.23242 -6.633,1.088 -55.08588,4.19697 -107.671877,6.91797 -123.759998,5.514 -97.4043423,10.83069 5.472656,11.80469 85.988001,0.81 119.261221,-6.53728 117.074221,-12.73828 -1.353,-3.834 -6.64363,-6.3698 -12.39063,-6.2168 z m 842.71095,20.70703 c -17.5869,0.0124 -36.3689,4.9081 -44.5703,12.60547 -22.43802,18.458 -5.38026,48.38346 14.7597,57.56446 18.766,7.886 50.3536,2.07259 60.1426,-11.06641 10.115,-13.574 10.2835,-41.63452 0.3145,-51.60352 -7.1403,-5.23046 -18.6134,-7.5085 -30.6465,-7.5 z m -1.5137,14.07422 c 13.7229,-0.0144 24.2722,7.52802 15.5528,27.03711 -12.678,27.827 -65.36242,12.62014 -48.2344,-12.38086 5.9934,-8.74828 20.5732,-14.64355 32.6816,-14.65625 z m -847.71678,31.1836 c -5.724,0 -13.18109,0.51001 -22.37109,1.54101 -20.158,2.263 -65.33167,5.92205 -100.388674,8.12305 -35.056999,2.201 -68.0359217,6.58805 -73.29492162,9.74805 -5.80799998,3.491 22.95792262,4.32471 73.29492162,2.13672 104.878994,-4.559 137.046874,-8.60515 137.046874,-17.24415 0,-2.873 -4.74611,-4.30468 -14.28711,-4.30468 z m 168.38281,94.38672 64.77344,14.15625 c 35.624,7.78298 67.25888,16.24178 70.29688,18.80268 -32.348,67.315 -281.70933,104.9364 -266.86133,47.1524 7.813,-21.702 91.18814,-39.194 114.36914,-63.95704 z M 756.5918,1138.541 c -54.613,0.03 -107.38791,2.7442 -140.12891,5.1172 -131.699,9.542 -142.29861,37.9874 -37.47461,52.3164 142.73,19.51 183.27102,0.3406 298.79102,-4.3144 98.711,-3.977 133.2954,-3.8749 59.93945,-33.5489 -37.644,-15.227 -110.90995,-19.6133 -181.12695,-19.5703 z" transform="translate(88.918514,11.187487) matrix(0.26458333,0,0,0.26458333,-5876.071,-3601.796) translate(21872.702,13570.804)" fill="#000000"/>
</svg>